<?xml version="1.0" encoding="UTF-8"?>
<svg version="1.1" xmlns="http://www.w3.org/2000/svg" width="258" height="136">
<path d="M0 0 C85.14 0 170.28 0 258 0 C258 44.88 258 89.76 258 136 C172.86 136 87.72 136 0 136 C0 91.12 0 46.24 0 0 Z " fill="#FCFCFC" transform="translate(0,0)"/>
<path d="M0 0 C2.16729703 1.20324852 4.07781774 2.45290047 6.0234375 3.984375 C6.75949219 4.53480469 7.49554688 5.08523437 8.25390625 5.65234375 C9.12982422 6.31169922 9.12982422 6.31169922 10.0234375 6.984375 C10.0234375 5.004375 10.0234375 3.024375 10.0234375 0.984375 C12.8984375 0.359375 12.8984375 0.359375 16.0234375 -0.015625 C18.66767684 2.62861434 18.29173951 3.86814132 18.32983398 7.56054688 C18.34582138 8.72936401 18.36180878 9.89818115 18.37828064 11.10241699 C18.38364334 12.37315063 18.38900604 13.64388428 18.39453125 14.953125 C18.40807396 16.9109491 18.40807396 16.9109491 18.42189026 18.9083252 C18.43840331 21.67914295 18.44608307 24.44983967 18.44897461 27.22070312 C18.45432518 30.74683215 18.4918531 34.27179722 18.53771877 37.79759979 C18.57491763 41.18276594 18.57601953 44.56776183 18.58203125 47.953125 C18.60156357 49.20766479 18.62109589 50.46220459 18.64122009 51.75476074 C18.59218799 61.38763947 16.06625641 67.3766778 10.8359375 75.296875 C3.22235787 82.57207331 -5.4630363 84.35690659 -15.65234375 84.265625 C-23.19450153 83.62751059 -29.22156542 79.6823318 -34.9765625 74.984375 C-36.91540043 72.39925776 -37.03856527 71.51759882 -36.6640625 68.296875 C-35.9765625 65.984375 -35.9765625 65.984375 -34.9765625 64.984375 C-32.8515625 64.484375 -32.8515625 64.484375 -29.9765625 64.984375 C-28.05935051 66.62279778 -26.39972144 68.37547143 -24.72265625 70.2578125 C-20.9128359 74.02501741 -17.49992254 74.32400696 -12.2265625 74.421875 C-5.73768819 74.32080219 -1.77887514 73.34482836 3.0234375 68.984375 C3.9721875 68.13875 4.9209375 67.293125 5.8984375 66.421875 C9.2935226 62.08942634 9.44901353 56.28279309 10.0234375 50.984375 C9.52714844 51.32210937 9.03085938 51.65984375 8.51953125 52.0078125 C-0.60731693 58.00001264 -9.76613115 59.45582279 -20.5703125 57.51953125 C-29.55692657 54.91895286 -34.22786663 49.22144118 -38.8125 41.3515625 C-42.64440548 33.55916411 -41.69420243 24.0014128 -38.9765625 15.984375 C-35.23361182 9.40194449 -30.38421325 4.93803184 -23.9765625 0.984375 C-23.42484375 0.62601563 -22.873125 0.26765625 -22.3046875 -0.1015625 C-15.96881717 -2.58913575 -6.41817591 -2.18992879 0 0 Z " fill="#0B0B0B" transform="translate(214.9765625,40.015625)"/>
<path d="M0 0 C10.37685446 -0.08640431 18.60895655 2.79986843 27 9 C28.88523569 10.90731105 30.39288897 12.84044456 32 15 C32.66 15.33 33.32 15.66 34 16 C34.25652344 15.4121875 34.51304687 14.824375 34.77734375 14.21875 C38.5653044 7.34475111 45.84114931 3.4490805 53 1 C58.94 0.505 58.94 0.505 65 0 C65 16.17 65 32.34 65 49 C55.1 49.99 55.1 49.99 45 51 C43.68 51.66 42.36 52.32 41 53 C48.92 53.33 56.84 53.66 65 54 C65 55.32 65 56.64 65 58 C43.88 58 22.76 58 1 58 C1 56.68 1 55.36 1 54 C8.59 53.67 16.18 53.34 24 53 C17.50054302 50.83351434 13.90021871 49.63935686 7.5 49.375 C1.08724832 49.08724832 1.08724832 49.08724832 0 48 C-0.09311889 46.49581261 -0.11746028 44.98728644 -0.11352539 43.48022461 C-0.11344986 42.51930405 -0.11337433 41.55838348 -0.11329651 40.56834412 C-0.10813522 39.523564 -0.10297394 38.47878387 -0.09765625 37.40234375 C-0.0962413 36.33834854 -0.09482635 35.27435333 -0.09336853 34.17811584 C-0.08775064 30.76454917 -0.07519511 27.351047 -0.0625 23.9375 C-0.05748731 21.62955824 -0.052924 19.32161545 -0.04882812 17.01367188 C-0.0377754 11.34242574 -0.02101987 5.67121747 0 0 Z " fill="#1A1A1A" transform="translate(103,40)"/>
<path d="M0 0 C2.4621542 1.20095901 4.67864797 2.50051285 6.9296875 4.05859375 C7.51105469 4.44273438 8.09242187 4.826875 8.69140625 5.22265625 C13.66104973 8.90294638 16.99541046 14.25576262 18.9296875 20.05859375 C19.04708872 21.74316475 19.10475295 23.43248252 19.1171875 25.12109375 C19.13136719 25.99894531 19.14554688 26.87679687 19.16015625 27.78125 C18.9296875 30.05859375 18.9296875 30.05859375 16.9296875 32.05859375 C14.86691284 32.29910278 14.86691284 32.29910278 12.29638672 32.28564453 C11.33554169 32.28549347 10.37469666 32.28534241 9.38473511 32.28518677 C8.34511627 32.2748642 7.30549744 32.26454163 6.234375 32.25390625 C5.17179474 32.25107635 4.10921448 32.24824646 3.01443481 32.24533081 C-0.38892749 32.23411014 -3.79202936 32.20900212 -7.1953125 32.18359375 C-9.49869412 32.17356639 -11.80207986 32.16444012 -14.10546875 32.15625 C-19.76050595 32.13416468 -25.41539063 32.10066864 -31.0703125 32.05859375 C-30.48383538 33.4897645 -29.88503261 34.9158874 -29.28125 36.33984375 C-28.94915527 37.13455078 -28.61706055 37.92925781 -28.27490234 38.74804688 C-25.87667557 43.34813163 -22.23928979 46.36846461 -17.3203125 47.93359375 C-16.2478125 47.97484375 -15.1753125 48.01609375 -14.0703125 48.05859375 C-13.23242188 48.13078125 -12.39453125 48.20296875 -11.53125 48.27734375 C-4.64235352 48.65689727 -0.39835461 47.46524512 4.9296875 43.05859375 C5.5896875 42.39859375 6.2496875 41.73859375 6.9296875 41.05859375 C9.4296875 40.80859375 9.4296875 40.80859375 11.9296875 41.05859375 C13.9296875 43.05859375 13.9296875 43.05859375 13.9921875 45.30859375 C11.98200901 50.51140868 7.28573624 53.63180649 2.3046875 55.87109375 C-5.83657502 58.73561204 -15.10292723 59.66490275 -23.16796875 56.0859375 C-32.37697258 51.11269724 -37.6678173 43.95816123 -41.0703125 34.05859375 C-42.52355353 24.23774382 -39.21094151 16.8144034 -33.8828125 8.74609375 C-24.49190161 -0.22744332 -12.59637237 -3.86224649 0 0 Z " fill="#0D0D0D" transform="translate(60.0703125,39.94140625)"/>
<path d="M0 0 C5.59417931 3.0475753 10.07917171 6.74997584 12.1171875 12.92578125 C12.98518778 19.39323434 13.04430529 25.47848884 9.1171875 30.92578125 C4.78877108 35.85013906 1.39305121 39.64394717 -5.37890625 40.2265625 C-6.67957031 40.23042969 -7.98023438 40.23429687 -9.3203125 40.23828125 C-10.61839844 40.25503906 -11.91648438 40.27179688 -13.25390625 40.2890625 C-18.64535562 39.74933721 -21.6693482 37.58220343 -25.0703125 33.48828125 C-25.80314453 32.62396484 -25.80314453 32.62396484 -26.55078125 31.7421875 C-30.83079526 25.90580476 -30.80868914 19.97732386 -29.8828125 12.92578125 C-27.63545902 7.26608591 -23.63372097 2.67520252 -18.27734375 -0.25390625 C-12.22264368 -2.32811019 -5.98447938 -2.22998893 0 0 Z " fill="#F9F9F9" transform="translate(212.8828125,49.07421875)"/>
<path d="M0 0 C9.05743585 0 14.53162238 3.16943342 21.2734375 9.0234375 C25.38269548 13.72770116 26.37175531 18.00308597 26.29296875 24.1484375 C26.28872391 24.80582916 26.28447906 25.46322083 26.28010559 26.14053345 C26.26344977 28.21912391 26.2258262 30.29670774 26.1875 32.375 C26.17243605 33.79295464 26.15875065 35.21092464 26.14648438 36.62890625 C26.11359038 40.0862589 26.06190165 43.54303103 26 47 C23.48308101 45.99443981 20.96737832 44.98672082 18.45703125 43.96484375 C17.58433594 43.62582031 16.71164063 43.28679687 15.8125 42.9375 C14.95269531 42.59589844 14.09289062 42.25429687 13.20703125 41.90234375 C8.94013152 40.60158654 8.94013152 40.60158654 0 40 C0 26.8 0 13.6 0 0 Z " fill="#F8F8F8" transform="translate(108,45)"/>
<path d="M0 0 C0 13.2 0 26.4 0 40 C-5.94 40.495 -5.94 40.495 -12 41 C-16.94885058 42.74334509 -21.32514788 44.66257394 -26 47 C-26 42.05 -26 37.1 -26 32 C-23.9271875 31.13375 -23.9271875 31.13375 -21.8125 30.25 C-15.4678657 27.40138868 -11.56720208 24.67472541 -9 18 C-8.50204999 15.32170577 -8.23456047 12.72090147 -8 10 C-15.15790047 12.46824154 -20.76423583 15.36148474 -26 21 C-26 14.64179335 -23.5112957 11.55982182 -19.1953125 7.01953125 C-13.20487946 1.50875922 -8.05117461 0 0 0 Z " fill="#F4F4F4" transform="translate(164,45)"/>
<path d="M0 0 C1.90994883 1.90994883 1.15516155 5.3446409 1.17358398 7.87475586 C1.1836145 8.95280235 1.1836145 8.95280235 1.19384766 10.05262756 C1.20792876 11.61810018 1.21981299 13.18359371 1.22979546 14.74909782 C1.24615406 17.22396809 1.26938889 19.69868322 1.29469299 22.17347717 C1.36561507 29.21152063 1.42565238 36.24962748 1.47680664 43.2878418 C1.50854291 47.58790661 1.54980494 51.88779398 1.59700203 56.18771553 C1.61305515 57.82998026 1.62536135 59.47228592 1.63390923 61.11460686 C1.64602072 63.40853839 1.67015198 65.70205042 1.69702148 67.99584961 C1.70732895 69.30299423 1.71763641 70.61013885 1.72825623 71.95689392 C1.68186816 75.10947561 1.68186816 75.10947561 4 77 C3.44444444 81.55555556 3.44444444 81.55555556 2 83 C-0.875 83.375 -0.875 83.375 -4 83 C-7.27491025 79.0082507 -7.41572251 75.228507 -7.34057617 70.2722168 C-7.34101425 69.51070816 -7.34145233 68.74919952 -7.34190369 67.96461487 C-7.3398214 65.45921779 -7.31651744 62.95449825 -7.29296875 60.44921875 C-7.28737079 58.70758937 -7.28310163 56.96595526 -7.28010559 55.22431946 C-7.26867256 50.64902617 -7.23921871 46.07402035 -7.20599365 41.49884033 C-7.17525949 36.8267404 -7.16159311 32.15459384 -7.14648438 27.48242188 C-7.11434748 18.32148855 -7.06316981 9.16076822 -7 0 C-4.31633121 -1.3418344 -2.84719317 -0.73004953 0 0 Z " fill="#0A0A0A" transform="translate(93,15)"/>
<path d="M0 0 C2.01375027 1.22208509 3.76474364 2.51691458 5.546875 4.0546875 C7.0009375 5.2921875 7.0009375 5.2921875 8.484375 6.5546875 C10.546875 9.0546875 10.546875 9.0546875 11.546875 14.0546875 C-1.653125 14.0546875 -14.853125 14.0546875 -28.453125 14.0546875 C-27.32481907 7.2848519 -27.32481907 7.2848519 -23.640625 4.3046875 C-22.95355469 3.73234375 -22.26648437 3.16 -21.55859375 2.5703125 C-15.28539212 -1.94546158 -7.32263526 -2.82177983 0 0 Z " fill="#F8F8F8" transform="translate(58.453125,48.9453125)"/>
<path d="M0 0 C0 16.17 0 32.34 0 49 C-2.97 49 -5.94 49 -9 49 C-9 48.67 -9 48.34 -9 48 C-6.36 48 -3.72 48 -1 48 C-1 32.49 -1 16.98 -1 1 C-2.32 1.33 -3.64 1.66 -5 2 C-4.34 2.66 -3.68 3.32 -3 4 C-2.82453518 7.01308951 -2.76872555 9.93310454 -2.8046875 12.9453125 C-2.8075174 13.8303244 -2.81034729 14.7153363 -2.81326294 15.62716675 C-2.8244776 18.45991412 -2.8495843 21.29234784 -2.875 24.125 C-2.88502815 26.04296419 -2.89415428 27.96093333 -2.90234375 29.87890625 C-2.92442111 34.58605876 -2.95895955 39.29297616 -3 44 C-3.33 44 -3.66 44 -4 44 C-4 31.13 -4 18.26 -4 5 C-13.65855725 7.16426152 -13.65855725 7.16426152 -22 11 C-22.33 10.34 -22.66 9.68 -23 9 C-25.31 11.31 -27.62 13.62 -30 16 C-30 12.46635827 -29.55735656 12.07810679 -27.1875 9.625 C-19.5207642 2.26992013 -10.33905473 0 0 0 Z " fill="#373737" transform="translate(168,40)"/>
<path d="M0 0 C1.32 0 2.64 0 4 0 C4 15.51 4 31.02 4 47 C-3.26 47.99 -10.52 48.98 -18 50 C-17.67 48.68 -17.34 47.36 -17 46 C-13.07650059 43.98523003 -9.09903535 43.78631623 -4.76953125 43.44921875 C-3.68905518 43.36373779 -2.6085791 43.27825684 -1.49536133 43.19018555 C-0.67189209 43.12742432 0.15157715 43.06466309 1 43 C1.04934926 37.34001954 1.08569529 31.68016364 1.10986328 26.02001953 C1.11993582 24.09356506 1.13359443 22.16712592 1.15087891 20.24072266 C1.17507241 17.47554748 1.18647036 14.710574 1.1953125 11.9453125 C1.20563507 11.0806839 1.21595764 10.2160553 1.22659302 9.32522583 C1.22699106 7.21546479 1.12265243 5.10619282 1 3 C0.34 2.34 -0.32 1.68 -1 1 C-0.67 0.67 -0.34 0.34 0 0 Z " fill="#0A0A0A" transform="translate(163,41)"/>
<path d="M0 0 C0.99 0 1.98 0 3 0 C2.91563067 2.86855713 2.41307819 4.55682315 0.4453125 6.66796875 C-4.51440024 11 -4.51440024 11 -7 11 C-5.50897439 6.39137539 -3.30545582 3.46669756 0 0 Z " fill="#D9D9D9" transform="translate(148,61)"/>
<path d="M0 0 C0.33 0.99 0.66 1.98 1 3 C-2.96 3.99 -6.92 4.98 -11 6 C-10.67 4.35 -10.34 2.7 -10 1 C-6.52674819 -0.1577506 -3.63932552 -0.06866652 0 0 Z " fill="#1A1A1A" transform="translate(163,41)"/>
<path d="M0 0 C2.4375 0.375 2.4375 0.375 5 1 C5.33 1.66 5.66 2.32 6 3 C-1.92 3 -9.84 3 -18 3 C-18.33 3.99 -18.66 4.98 -19 6 C-19 4.68 -19 3.36 -19 2 C-12.73 1.67 -6.46 1.34 0 1 C0 0.67 0 0.34 0 0 Z " fill="#C8C8C8" transform="translate(122,91)"/>
</svg>
