<?xml version="1.0" encoding="UTF-8"?>
<svg version="1.1" xmlns="http://www.w3.org/2000/svg" width="249" height="142">
<path d="M0 0 C0.99 0.33 1.98 0.66 3 1 C3.556875 0.34 4.11375 -0.32 4.6875 -1 C7 -3 7 -3 9.625 -3.375 C12 -3 12 -3 14 -1 C15.36941684 4.47385888 15.16163139 10.09283596 15.16796875 15.69921875 C15.17296135 17.24546684 15.17296135 17.24546684 15.17805481 18.82295227 C15.18310648 21.00069739 15.18546368 23.1784502 15.18530273 25.35620117 C15.18748109 28.65882409 15.20563337 31.96110833 15.22460938 35.26367188 C15.22754543 37.3880197 15.2295288 39.5123691 15.23046875 41.63671875 C15.23765427 42.61106369 15.24483978 43.58540863 15.25224304 44.58927917 C15.21339685 56.46801269 13.74801823 65.92011202 5.33203125 74.75 C3.62756103 76.31015581 1.88552263 77.66594206 0 79 C-0.54785156 79.41378906 -1.09570312 79.82757813 -1.66015625 80.25390625 C-8.2963354 84.43980386 -16.48341478 83.76839586 -24 83 C-27.31934412 82.07040226 -30.06703981 80.78949333 -33 79 C-34.010625 78.46375 -35.02125 77.9275 -36.0625 77.375 C-37.0215625 76.694375 -37.0215625 76.694375 -38 76 C-38 75.34 -38 74.68 -38 74 C-38.66 74 -39.32 74 -40 74 C-42.08901197 70.60535554 -42.34361606 67.95158471 -42 64 C-40 62 -40 62 -37.8125 61.4375 C-33.93007397 62.21398521 -32.39243604 64.35206623 -29.84375 67.2734375 C-25.2241171 71.59944966 -19.94288093 71.36782036 -13.94140625 71.25 C-8.57153862 70.79359691 -5.34904904 69.13919697 -1.1875 65.625 C2.82534657 60.80958412 3.2436216 57.21235083 3 51 C1.700625 51.928125 1.700625 51.928125 0.375 52.875 C-7.67784713 57.94531116 -16.35262509 58.01112179 -25.59375 56.60546875 C-32.85611908 54.62366029 -38.6983589 49.70454615 -42.640625 43.359375 C-46.8816922 35.0234843 -48.78632734 26.72679837 -46.31640625 17.42578125 C-42.07016996 7.32995804 -35.86457519 0.88412403 -25.75 -3.3125 C-16.22403231 -6.57375822 -8.8839993 -3.91221988 0 0 Z M-35 18 C-37.24539178 22.49078356 -36.57954607 28.14072907 -36 33 C-34.04608282 37.85687986 -31.07376095 41.62023522 -26.6875 44.5 C-19.92897754 47.24922948 -14.0605547 47.83496903 -7.14453125 45.21875 C-2.12505157 42.36614953 1.8576107 37.340886 4 32 C4.79969202 26.01160861 4.62739127 20.08316352 1.5078125 14.79296875 C-2.36870939 10.18332225 -7.1285763 7.51301786 -13.0390625 6.45703125 C-23.22872048 5.9797941 -29.14368464 10.01411542 -35 18 Z " fill="#FCFCFC" transform="translate(218,43)"/>
<path d="M0 0 C8.90040158 5.20962072 14.4497757 12.47066504 17.2890625 22.33984375 C17.19693734 28.14372901 17.19693734 28.14372901 15.02140808 31.00996399 C12.76335637 32.74341562 11.46261586 32.70316992 8.6340332 32.68041992 C7.69328445 32.68019333 6.75253571 32.67996674 5.78327942 32.67973328 C4.26440376 32.65650749 4.26440376 32.65650749 2.71484375 32.6328125 C1.67587448 32.62856766 0.63690521 32.62432281 -0.43354797 32.61994934 C-3.75544026 32.60314224 -7.07672825 32.56548571 -10.3984375 32.52734375 C-12.64907979 32.51229957 -14.89973157 32.4986107 -17.15039062 32.48632812 C-22.67077947 32.45323211 -28.19081532 32.40301244 -33.7109375 32.33984375 C-33.23269531 33.44714844 -32.75445312 34.55445313 -32.26171875 35.6953125 C-31.42530469 37.66099088 -30.60656793 39.6368956 -29.8984375 41.65234375 C-27.99930764 44.35110723 -25.87583293 44.54861989 -22.7109375 45.33984375 C-21.96328125 45.56027344 -21.215625 45.78070313 -20.4453125 46.0078125 C-13.90310669 47.70508288 -8.81851628 47.34222254 -2.7109375 44.33984375 C-0.77677171 42.81960449 0.97831637 41.20841704 2.75 39.50390625 C4.2890625 38.33984375 4.2890625 38.33984375 7.2265625 38.46484375 C9.2890625 39.33984375 9.2890625 39.33984375 10.7265625 41.83984375 C11.2890625 45.33984375 11.2890625 45.33984375 10.1796875 47.37890625 C5.18928642 53.49100299 -0.40237095 55.9036549 -7.7109375 58.33984375 C-17.94507907 59.30324288 -26.9982193 57.7084446 -35.0859375 51.08984375 C-42.13999995 44.33996059 -44.79703798 37.91427588 -45.0234375 28.21484375 C-44.91615079 19.58313989 -43.06015659 12.48428587 -37.2109375 5.96484375 C-26.85601832 -3.33735721 -12.72108643 -5.82186529 0 0 Z M-30.2109375 14.83984375 C-32.05393467 17.42559304 -32.05393467 17.42559304 -31.7109375 21.33984375 C-19.8309375 21.33984375 -7.9509375 21.33984375 4.2890625 21.33984375 C3.29070892 17.34642944 2.81067894 16.45030867 0.0390625 13.71484375 C-0.83492187 12.82925781 -0.83492187 12.82925781 -1.7265625 11.92578125 C-6.42667182 8.16939467 -11.10413966 7.90582829 -16.921875 8.0234375 C-22.51522647 8.65797737 -26.27843139 10.90733764 -30.2109375 14.83984375 Z " fill="#FCFCFC" transform="translate(61.7109375,41.66015625)"/>
<path d="M0 0 C12.95870705 0.50130395 21.83564382 3.69465373 31 13 C31.66 13.66 32.32 14.32 33 15 C33.474375 14.29875 33.94875 13.5975 34.4375 12.875 C41.03502817 5.47289522 49.40959977 2.04563116 59 0 C62.33203125 -0.1640625 62.33203125 -0.1640625 65 0 C66 1 66 1 66.12025452 2.98048401 C66.11803391 3.84874313 66.11581329 4.71700226 66.11352539 5.61157227 C66.11341209 7.08298424 66.11341209 7.08298424 66.11329651 8.5841217 C66.10813522 9.6507756 66.10297394 10.7174295 66.09765625 11.81640625 C66.0962413 12.9025975 66.09482635 13.98878876 66.09336853 15.1078949 C66.08775048 18.59279075 66.07519492 22.07762342 66.0625 25.5625 C66.05748733 27.91861887 66.05292402 30.27473874 66.04882812 32.63085938 C66.03777519 38.42059464 66.02101951 44.21029281 66 50 C63.8216544 51.0891728 62.2796036 51.28032356 59.8671875 51.53515625 C59.14128418 51.61386963 58.41538086 51.69258301 57.66748047 51.77368164 C56.74596191 51.8689917 55.82444336 51.96430176 54.875 52.0625 C50.481875 52.5265625 50.481875 52.5265625 46 53 C52.6 53.33 59.2 53.66 66 54 C66 55.65 66 57.3 66 59 C43.89093071 60.03280035 22.11192807 59.90596981 0 59 C0 57.35 0 55.7 0 54 C3.72430357 53.30710631 7.21083746 52.88855404 11 53 C9.42734206 51.42734206 7.67159971 51.69242023 5.5 51.5 C1.11111111 51.11111111 1.11111111 51.11111111 0 50 C-0.12748673 48.54358504 -0.18825601 47.08124194 -0.22119141 45.61962891 C-0.24436432 44.68841217 -0.26753723 43.75719543 -0.29141235 42.79776001 C-0.3112619 41.78426483 -0.33111145 40.77076965 -0.3515625 39.7265625 C-0.37471527 38.69187836 -0.39786804 37.65719421 -0.42172241 36.59115601 C-0.46944612 34.39708511 -0.51466967 32.20295865 -0.55761719 30.00878906 C-0.62457637 26.64627337 -0.70237012 23.28412969 -0.78125 19.921875 C-0.82617695 17.79428459 -0.87046877 15.66668065 -0.9140625 13.5390625 C-0.93796051 12.52961578 -0.96185852 11.52016907 -0.98648071 10.48013306 C-1.0033493 9.542612 -1.0202179 8.60509094 -1.03759766 7.63916016 C-1.05456696 6.81388824 -1.07153625 5.98861633 -1.08901978 5.13833618 C-1 3 -1 3 0 0 Z M6 7 C4.72840057 10.88959827 4.87348813 14.78563579 4.90234375 18.828125 C4.9037587 19.57713074 4.90517365 20.32613647 4.90663147 21.09783936 C4.91221341 23.48193412 4.92476255 25.86593378 4.9375 28.25 C4.94251734 29.86979031 4.94707984 31.48958209 4.95117188 33.109375 C4.96217692 37.07295312 4.97942909 41.03646045 5 45 C6.53720703 45.18175781 6.53720703 45.18175781 8.10546875 45.3671875 C9.46618979 45.53610459 10.8268645 45.7053952 12.1875 45.875 C12.86103516 45.95363281 13.53457031 46.03226563 14.22851562 46.11328125 C18.12659195 46.60767142 21.39486794 47.47598325 25 49 C25.99 49 26.98 49 28 49 C28 49.66 28 50.32 28 51 C28.66 51 29.32 51 30 51 C30.1756692 46.52133633 30.28131911 42.0435693 30.375 37.5625 C30.42527344 36.30244141 30.47554687 35.04238281 30.52734375 33.74414062 C30.65730697 25.44815508 29.72655862 20.1721334 24 14 C18.61363519 8.81104123 13.35376611 7.23345289 6 7 Z M39.51171875 16.390625 C39.01285156 16.92171875 38.51398438 17.4528125 38 18 C38.33 18.99 38.66 19.98 39 21 C39.77085937 20.566875 40.54171875 20.13375 41.3359375 19.6875 C42.33882812 19.130625 43.34171875 18.57375 44.375 18 C45.37273437 17.443125 46.37046875 16.88625 47.3984375 16.3125 C50 15 50 15 52 15 C53.57653163 20.58952124 52.64313608 24.94907556 50 30 C46.15864919 34.57397957 41.52677496 36.96975614 36 39 C36 42.96 36 46.92 36 51 C37.65 50.34 39.3 49.68 41 49 C42.5539415 48.45416172 44.11689142 47.93334502 45.6875 47.4375 C46.45449219 47.18871094 47.22148437 46.93992188 48.01171875 46.68359375 C52.26743509 45.71006387 56.65601794 45.43439821 61 45 C61 32.13 61 19.26 61 6 C52.6255843 6 45.20869348 10.78570193 39.51171875 16.390625 Z M37 21 C36.67 22.32 36.34 23.64 36 25 C36.99 24.01 37.98 23.02 39 22 C38.34 21.67 37.68 21.34 37 21 Z M45 23 C44.67 23.99 44.34 24.98 44 26 C43.34 26 42.68 26 42 26 C41.34 27.65 40.68 29.3 40 31 C44.03384128 28.92856799 45.92856799 27.03384128 48 23 C47.01 23 46.02 23 45 23 Z M17 53 C17 53.33 17 53.66 17 54 C18.65 54 20.3 54 22 54 C22 53.67 22 53.34 22 53 C20.35 53 18.7 53 17 53 Z " fill="#FCFCFC" transform="translate(101,40)"/>
<path d="M0 0 C3.22444934 2.18124514 3.27407401 4.7173687 4.125 8.4375 C4.34532166 11.79594421 4.34532166 11.79594421 4.30444336 15.3190918 C4.29991653 15.96717804 4.29538971 16.61526428 4.29072571 17.2829895 C4.27984716 18.67652682 4.26440036 20.07003475 4.24476433 21.46347618 C4.21437875 23.67049349 4.19773144 25.87724278 4.18470764 28.08442688 C4.14512255 34.35474806 4.07970039 40.62474197 4.00854492 46.89477539 C3.96583145 50.74128005 3.93774032 54.58767761 3.91824532 58.43436623 C3.90768879 59.89643501 3.89130323 61.35847392 3.86894035 62.82040977 C3.83774305 64.86147452 3.82650706 66.90281486 3.81616211 68.9440918 C3.80346786 70.10434372 3.79077362 71.26459564 3.7776947 72.46000671 C4.16328884 75.76575516 5.05041573 76.93005623 7.125 79.4375 C6.8125 82.1875 6.8125 82.1875 6.125 84.4375 C3.4375 85.6875 3.4375 85.6875 0.125 86.4375 C-2.67043747 84.69811668 -4.39601031 83.39547938 -5.875 80.4375 C-5.98858527 77.98204445 -6.04279587 75.55426893 -6.05200195 73.09790039 C-6.05857315 72.34164871 -6.06514435 71.58539703 -6.07191467 70.80622864 C-6.09165503 68.29920356 -6.10331014 65.79223832 -6.11328125 63.28515625 C-6.11735678 62.43019499 -6.1214323 61.57523373 -6.12563133 60.69436455 C-6.14649243 56.17165238 -6.16079554 51.64897059 -6.17016602 47.1262207 C-6.1812475 42.44729385 -6.21566694 37.76884037 -6.25533772 33.09008121 C-6.2814347 29.49819533 -6.28985152 25.90642359 -6.29344749 22.31445122 C-6.29832923 20.5892154 -6.30998811 18.86398519 -6.32848549 17.13884163 C-6.35273722 14.72767267 -6.35193848 12.31774676 -6.3449707 9.90649414 C-6.35778076 9.19106445 -6.37059082 8.47563477 -6.38378906 7.73852539 C-6.36274719 5.74598694 -6.36274719 5.74598694 -5.875 2.4375 C-2.56575648 -0.76972694 -2.56575648 -0.76972694 0 0 Z " fill="#FEFEFE" transform="translate(88.875,13.5625)"/>
<path d="M0 0 C0.33 0.66 0.66 1.32 1 2 C-4.29300944 5.52867296 -8.74426572 6.40838371 -15.0625 6.4375 C-15.73474609 6.44716797 -16.40699219 6.45683594 -17.09960938 6.46679688 C-22.1219898 6.38333601 -25.57731918 5.16820633 -30 3 C-28.5 1.8125 -28.5 1.8125 -26 1 C-23.90095662 1.62799249 -21.98459193 2.44469244 -20 3.37109375 C-17.57461563 4.13376344 -16.39882981 3.7230006 -14 3 C-12.906875 3.04125 -11.81375 3.0825 -10.6875 3.125 C-6.32038197 2.9769621 -3.88589834 1.90329715 0 0 Z " fill="#E8E8E8" transform="translate(217,120)"/>
<path d="M0 0 C-3.93026776 2.6201785 -7.32625942 2.96025731 -12 3 C-15.5625 2.0625 -15.5625 2.0625 -18 1 C-18 0.67 -18 0.34 -18 0 C-15.75067773 -0.1954625 -13.50049858 -0.38108226 -11.25 -0.5625 C-9.99703125 -0.66691406 -8.7440625 -0.77132812 -7.453125 -0.87890625 C-4.60547636 -0.97876723 -2.65713933 -0.90584295 0 0 Z " fill="#ECECEC" transform="translate(211,115)"/>
<path d="M0 0 C-1.91599391 2.44821444 -2.97243029 2.99324823 -6.0625 3.75 C-9 4 -9 4 -11 3 C-11 3.66 -11 4.32 -11 5 C-11.99 4.67 -12.98 4.34 -14 4 C-13.34 4 -12.68 4 -12 4 C-12 3.34 -12 2.68 -12 2 C-7.8803623 0.70756464 -4.33168317 -0.26252625 0 0 Z " fill="#F5F5F5" transform="translate(61,87)"/>
<path d="M0 0 C1.43836751 0.11458693 2.87570966 0.24209116 4.3125 0.375 C5.51326172 0.47941406 5.51326172 0.47941406 6.73828125 0.5859375 C9 1 9 1 12 3 C8.72814447 4.07310858 6.57052408 3.89263102 3.25 3.0625 C2.45078125 2.86785156 1.6515625 2.67320313 0.828125 2.47265625 C0.22484375 2.31667969 -0.3784375 2.16070312 -1 2 C-0.67 1.34 -0.34 0.68 0 0 Z " fill="#F4F4F4" transform="translate(202,39)"/>
<path d="M0 0 C3.3 0.33 6.6 0.66 10 1 C9.67 1.66 9.34 2.32 9 3 C6.03 2.67 3.06 2.34 0 2 C0 1.34 0 0.68 0 0 Z " fill="#F2F2F2" transform="translate(194,89)"/>
<path d="M0 0 C0.33 0.66 0.66 1.32 1 2 C-0.28650706 2.69710731 -1.57940665 3.38242876 -2.875 4.0625 C-3.95394531 4.63677734 -3.95394531 4.63677734 -5.0546875 5.22265625 C-5.69664062 5.47917969 -6.33859375 5.73570313 -7 6 C-7.66 5.67 -8.32 5.34 -9 5 C-3.375 1.125 -3.375 1.125 0 0 Z " fill="#EEEEEE" transform="translate(217,120)"/>
<path d="M0 0 C4.75 0.875 4.75 0.875 7 2 C6.67 2.99 6.34 3.98 6 5 C4.02 4.01 2.04 3.02 0 2 C0 1.34 0 0.68 0 0 Z " fill="#F2F2F2" transform="translate(34,86)"/>
</svg>
